<svg xmlns="http://www.w3.org/2000/svg" width="99" height="108" viewBox="0 0 99 108">
  <g fill="#FFFFFF" fill-rule="evenodd">
    <polygon fill-rule="nonzero" points="33.962 47.919 17.436 57.163 33.385 66.831" opacity=".6"/>
    <polyline fill-rule="nonzero" points="53.372 37.221 53.09 37.517 68.397 28.53 68.397 46.453 53.09 37.517"/>
    <polyline fill-rule="nonzero" points="83.654 36.951 68.397 45.797 83.654 54.939 83.654 36.951" opacity=".4"/>
    <polygon fill-rule="nonzero" points="52.859 19.157 68.397 10.054 68.397 28.53" opacity=".6"/>
    <polygon fill-rule="nonzero" points="68.397 10.054 83.654 19.157 68.397 28.53" opacity=".8"/>
    <polygon fill-rule="nonzero" points="68.397 10.054 83.256 1.453 83.654 19.157" opacity=".6"/>
    <polyline fill-rule="nonzero" points="83.654 37.466 98.769 46.337 83.654 54.939 83.654 37.466" opacity=".6"/>
    <polyline fill-rule="nonzero" points="83.256 72.45 98.769 63.939 83.654 54.939" opacity=".2"/>
    <polyline fill-rule="nonzero" points="68.397 46.273 53.141 54.977 68.397 63.861 68.397 46.453" opacity=".6"/>
    <polyline fill-rule="nonzero" points="83.654 19.299 98.936 11.044 98.769 28.401 83.654 19.71" opacity=".6"/>
    <polyline fill-rule="nonzero" points="98.769 46.337 83.654 54.939 98.641 63.861 98.769 46.337" opacity=".6"/>
    <path fill-rule="nonzero" d="M11.4615385,96.0942857 C12.7758331,97.3746504 13.5042333,99.1426945 13.474359,100.98 C13.4864067,102.841698 12.7355214,104.62666 11.3974359,105.917143 C10.2508488,107.069291 8.75218375,107.802656 7.14102564,108 L0,108 L0,87.1714286 L6.56410256,87.1714286 C7.83572383,87.1353323 9.06553235,87.6286612 9.96153846,88.5342857 C10.8368475,89.377455 11.3282108,90.5442905 11.3205128,91.7614286 C11.3488906,92.9597094 10.8853948,94.1171112 10.0384615,94.9628571 C10.5920834,95.2271445 11.078666,95.6140059 11.4615385,96.0942857 Z M2.56410256,89.4214286 L2.56410256,93.9857143 L6.76923077,93.9857143 C7.25060641,93.9582849 7.70589801,93.7573843 8.05128205,93.42 C8.48369785,92.9801807 8.71169214,92.3782359 8.67948718,91.7614286 C8.69916675,91.1379654 8.4627964,90.5337313 8.02564103,90.09 C7.63930076,89.6687719 7.09630218,89.4267497 6.52564103,89.4214286 L2.56410256,89.4214286 Z M6.41025641,105.698571 C7.58883776,105.720439 8.72457623,105.255548 9.55128205,104.412857 C11.3470071,102.533149 11.3470071,99.5682797 9.55128205,97.6885714 C8.75191352,96.7897807 7.61113867,96.2714632 6.41025641,96.2614286 L2.56410256,96.2614286 L2.56410256,105.698571 L6.41025641,105.698571 Z" opacity=".8"/>
    <polygon fill-rule="nonzero" points="29.487 87.171 29.487 89.434 20.795 89.434 20.795 96.429 29.487 96.429 29.487 98.704 20.795 98.704 20.795 105.699 29.487 105.699 29.487 108 18.192 108 18.192 87.171" opacity=".8"/>
    <path fill-rule="nonzero" d="M43.2307692 87.1714286L50.7179487 108 48.0128205 108 44.8717949 99.3214286 39.2820513 99.3214286 36.1025641 108 33.3333333 108 41.025641 87.1714286 43.2307692 87.1714286zM44.0769231 97.0714286L42.0897436 91.5428571 40.1025641 97.0714286 44.0769231 97.0714286zM66.1923077 96.0942857C67.5014746 97.3781311 68.2289204 99.1438586 68.2051282 100.98 68.2123188 102.843307 67.4569211 104.627978 66.1153846 105.917143 64.9699694 107.070935 63.4707039 107.804595 61.8589744 108L54.7179487 108 54.7179487 87.1714286 61.2948718 87.1714286C62.5623569 87.1373683 63.7874257 87.6306573 64.6794872 88.5342857 65.5582484 89.3761358 66.0541241 90.5426818 66.0512821 91.7614286 66.0675319 92.9701697 65.5795203 94.130761 64.7051282 94.9628571 65.2797997 95.2223516 65.7882856 95.6092016 66.1923077 96.0942857zM57.3205128 89.4214286L57.3205128 93.9857143 61.5384615 93.9857143C62.0198372 93.9582849 62.4751288 93.7573843 62.8205128 93.42 63.2562589 92.9814948 63.4887723 92.3798961 63.4615385 91.7614286 63.4763197 91.1363487 63.2354369 90.5324209 62.7948718 90.09 62.4113452 89.664859 61.8665437 89.4220332 61.2948718 89.4214286L57.3205128 89.4214286zM61.0897436 105.698571C62.2680421 105.718922 63.4032068 105.254265 64.2307692 104.412857 66.0264942 102.533149 66.0264942 99.5682797 64.2307692 97.6885714 63.41817 96.8161902 62.2801324 96.322408 61.0897436 96.3257143L57.3205128 96.3256978 57.3205128 105.762857 61.0897436 105.698571z"/>
    <polygon fill-rule="nonzero" points="72.91 108 72.91 87.171 75.474 87.171 75.474 105.699 82.897 105.699 82.897 108"/>
    <polygon fill-rule="nonzero" points="98.897 87.171 98.897 89.434 90.256 89.434 90.256 96.429 98.897 96.429 98.897 98.704 90.256 98.704 90.256 105.699 98.897 105.699 98.897 108 87.654 108 87.654 87.171"/>
    <polygon fill-rule="nonzero" points=".782 9.707 17.436 0 17.436 19.157" opacity=".8"/>
    <polygon fill-rule="nonzero" points="33.385 66.831 33.962 47.919 50.526 57.163"/>
    <polygon fill-rule="nonzero" points="33.962 28.877 33.962 47.919 50.526 38.25" opacity=".8"/>
    <polygon fill-rule="nonzero" points="17.436 57.163 17.436 76.513 33.385 66.831" opacity=".4"/>
    <polygon fill-rule="nonzero" points="17.436 0 17.436 19.157 33.962 9.579"/>
    <polygon fill-rule="nonzero" points="33.962 28.877 17.436 19.157 33.962 9.579"/>
    <polygon fill-rule="nonzero" points="49.936 19.234 50.526 38.25 33.962 28.877"/>
    <polygon fill-rule="nonzero" points="33.962 9.579 49.936 19.234 33.962 28.877" opacity=".6"/>
    <polygon fill-rule="nonzero" points="50.526 38.25 50.526 57.163 33.962 47.919" opacity=".6"/>
    <polygon fill-rule="nonzero" points="33.962 28.877 17.436 38.25 33.538 47.674 33.962 47.919" opacity=".8"/>
    <polygon fill-rule="nonzero" points="17.436 57.163 .885 66.407 17.436 76.513" opacity=".2"/>
    <polygon fill-rule="nonzero" points=".782 47.096 17.436 57.163 .885 66.407" opacity=".4"/>
    <polygon fill-rule="nonzero" points="17.436 38.25 17.436 57.163 .782 47.096" opacity=".4"/>
    <polygon fill-rule="nonzero" points=".782 28.054 17.436 19.157 17.436 38.25"/>
    <polyline fill-rule="nonzero" points=".782 28.749 .782 47.096 17.436 38.25 .782 28.054 17.436 19.157 .782 9.707" opacity=".8"/>
    <polyline fill-rule="nonzero" points="83.256 1.967 83.256 1.453 83.654 19.71 98.936 11.044 98.936 10.941 83.256 1.453"/>
    <path fill-rule="nonzero" d="M83.6538462,37.4657143 L99.2948718,28.4014286"/>
    <polygon fill-rule="nonzero" points="98.769 28.401 83.654 19.659 83.654 37.414" opacity=".4"/>
    <polygon fill-rule="nonzero" points="83.654 37.466 98.769 28.401 98.769 46.337" opacity=".8"/>
    <polyline fill-rule="nonzero" points="53.141 37.517 53.141 55.041 68.397 46.401 68.397 64.144 68.397 46.401" opacity=".4"/>
    <polyline fill-rule="nonzero" points="52.859 19.157 53.09 37.517 68.397 28.53 68.397 46.273 68.397 28.53" opacity=".4"/>
    <polyline fill-rule="nonzero" points="68.397 46.273 68.397 63.861 53.141 54.977 53.141 72.501 68.397 63.861 68.397 63.861"/>
  </g>
</svg>
