<svg xmlns="http://www.w3.org/2000/svg" viewBox="0 0 60 26"  fill-rule="nonzero" stroke-linejoin="round" stroke-miterlimit="2"><path d="M39.485 3.392C36.904 1.217 33.475 0 29.932 0c-7.6 0-13.572 5.788-13.572 13.24 0 7.12 5.972 12.576 13.756 12.576 7.673 0 13.462-5.677 13.462-13.129 0-3.875-1.401-7.083-4.093-9.295zM29.71 18.074c-2.509 0-4.354-2.029-4.354-4.76 0-2.842 2.177-5.167 4.871-5.167 2.473 0 4.355 2.067 4.355 4.687 0 2.989-2.067 5.24-4.872 5.24z" fill="#4000d3"/><path d="M50.966.59l-3.023 24.599h9.032L60 .59h-9.034zM3.023.59L0 25.189h9.033L12.057.59H3.023z" fill="#00da9f"/></svg>